<svg width="20" height="20" viewBox="0 0 20 20" fill="none" xmlns="http://www.w3.org/2000/svg">
<path d="M11.2864 8.71306C10.6038 8.03075 9.67822 7.64746 8.71309 7.64746C7.74797 7.64746 6.82235 8.03075 6.13976 8.71306L3.56559 11.2864C2.88299 11.969 2.49951 12.8948 2.49951 13.8601C2.49951 14.8255 2.88299 15.7513 3.56559 16.4339C4.24819 17.1165 5.174 17.5 6.13934 17.5C7.10469 17.5 8.03049 17.1165 8.71309 16.4339L9.99976 15.1472" stroke="black" stroke-width="1.66667" stroke-linecap="round" stroke-linejoin="round"/>
<path d="M8.71289 11.2864C9.39548 11.9687 10.3211 12.352 11.2862 12.352C12.2513 12.352 13.177 11.9687 13.8596 11.2864L16.4337 8.71309C17.1163 8.03049 17.4998 7.10469 17.4998 6.13934C17.4998 5.174 17.1163 4.24819 16.4337 3.56559C15.7511 2.88299 14.8253 2.49951 13.86 2.49951C12.8946 2.49951 11.9688 2.88299 11.2862 3.56559L9.99956 4.85226" stroke="black" stroke-width="1.66667" stroke-linecap="round" stroke-linejoin="round"/>
</svg>
